<svg viewBox="0 0 1024 1024" xmlns="http://www.w3.org/2000/svg"><path fill="white" d="m789 610.3c-38.7-12.9-90.7-32.7-148.5-53.6 34.8-60.3 62.5-129 80.7-203.6h-190.7v-68.6h233.6v-38.3h-233.6v-114.2h-95.4c-16.7 0-16.7 16.5-16.7 16.5v97.8h-236.2v38.3h236.3v68.6h-195.1v38.3h378.4a667.18 667.18 0 0 1 -54.5 132.9c-122.8-40.4-253.8-73.2-336.1-53-52.6 13-86.5 36.1-106.5 60.3-91.4 111-25.9 279.6 167.2 279.6 114.1-.1 224.1-63.7 309.3-168.3 127.1 61 378.8 165.7 378.8 165.7v-149.3s-31.6-2.5-171-49.1zm-535.1 136.3c-150.5 0-195-118.3-120.6-183.1 24.8-21.9 70.2-32.6 94.4-35 89.4-8.8 172.2 25.2 269.9 72.8-68.8 89.5-156.3 145.3-243.7 145.3z"/></svg>