<svg enable-background="new 0 0 296.25 190" height="190" viewBox="0 0 296.25 190" width="296.25" xmlns="http://www.w3.org/2000/svg"><path d="m281.252502.47749-72.764999-.018753c-.008743 0-.018753 0-.018753 0-.056244 0-.111252.01001-.166245.01001-9.996246.306244-22.446259 8.323746-24.71376 18.209992l-34.41124 152.262133c-2.267502 9.978561 3.901245 18.09819 13.824997 18.247604h76.442505c9.772491-.483398 19.268738-8.408691 21.497498-18.182602l34.412506-152.263384c2.303741-10.080003-4.013763-18.265-14.102509-18.265" fill="#01798a"/><path d="m149.177505 170.940872 34.411255-152.262133c2.267502-9.886247 14.717499-17.903749 24.713745-18.209992l-28.931244-.018753-52.125008-.01001c-10.024124.205002-22.636368 8.278763-24.903 18.238755l-34.421379 152.262133c-2.275871 9.978561 3.901878 18.09819 13.819374 18.247604h81.261253c-9.923752-.149414-16.092499-8.269043-13.824997-18.247604" fill="#024381"/><path d="m67.921875 170.940872 34.421371-152.262117c2.266624-9.960008 14.878876-18.033753 24.903-18.238755l-66.775497-.017502c-10.080124 0-23.004002 8.16626-25.307625 18.256257l-34.421425 152.262117c-.209472.929245-.325684 1.839874-.395019 2.731003v2.824753c.673827 7.27388 6.229007 12.570755 14.21432 12.691849h67.180249c-9.917496-.149414-16.095245-8.269043-13.819374-18.247604" fill="#dd0228"/><path d="m128.653748 111.388123h1.263748c1.161255 0 1.942505-.389626 2.308746-1.161125l3.283752-4.914497h8.793747l-1.83374 3.232376h10.543747l-1.337494 4.952621h-12.546265c-1.444992 2.173874-3.22374 3.195877-5.362488 3.074753h-6.535004l1.421249-5.184128m-1.443748 7.098251h23.099998l-1.472504 5.379875h-9.289993l-1.417496 5.192879h9.039993l-1.472504 5.379364h-9.039993l-2.100006 7.673386c-.520004 1.282623.163757 1.859375 2.040009 1.7285h7.367493l-1.365005 4.998993h-14.144989c-2.681259 0-3.601006-1.533752-2.760002-4.608368l2.68499-9.792511h-5.778496l1.46788-5.379364h5.779366l1.41626-5.192879h-5.52375l1.46875-5.379875zm36.870003-13.210503-.363754 3.149376s4.357498-3.2715 8.315002-3.2715h14.623749l-5.592499 20.244247c-.46376 2.314377-2.452499 3.465256-5.965012 3.465256h-16.574997l-3.882492 14.215363c-.223755.761749.092499 1.152374.928741 1.152374h3.261246l-1.198746 4.412506h-8.291245c-3.182495 0-4.506256-.957001-3.981247-2.879379l10.971237-40.488243h7.75.000015zm12.383743 5.722626h-13.052505l-1.561249 5.462502s2.173752-1.569374 5.806259-1.625504c3.622498-.056747 7.757492 0 7.757492 0zm-4.728745 12.671875c.964996.130875 1.50499-.250999 1.569992-1.152252l.798752-2.879494h-13.072495l-1.096252 4.031746zm-8.817505 6.540627h7.535004l-.139999 3.26062h2.006241c1.013748 0 1.516251-.324615 1.516251-.96524l.59375-2.109375h6.262497l-.836243 3.074615c-.707504 2.564499-2.582504 3.902374-5.630005 4.033249h-4.013748l-.018753 5.573746c-.073746.892624.733749 1.347626 2.396255 1.347626h3.772507l-1.217514 4.413132h-9.048737c-2.536255.120621-3.779999-1.087875-3.753754-3.651382l.576248-14.97699" fill="#fff"/><path d="m71.610374 78.304749c-1.022003 5.007751-3.391121 8.854004-7.066002 11.585373-3.641499 2.685127-8.338375 4.031754-14.088749 4.031754-5.411625 0-9.378998-1.375-11.910751-4.134254-1.755875-1.960495-2.629372-4.450249-2.629372-7.460495 0-1.244629.148998-2.582504.446373-4.022377l6.126877-29.543507h9.253498l-6.043499 29.209003c-.186001.808502-.26025 1.561005-.2505 2.23925-.00975 1.496124.361748 2.72213 1.11425 3.678627 1.096249 1.421875 2.8755 2.127502 5.351498 2.127502 2.847252 0 5.193375-.696251 7.014252-2.099625 1.821251-1.393501 3.01025-3.372002 3.544373-5.945755l6.062504-29.209003h9.206619z" fill="#fff"/><path d="m110.472122 66.682121h7.247124l-5.67675 26.366753h-7.232872zm2.28125-9.605877h7.311623l-1.365746 6.400005h-7.311127z" fill="#fff"/><path d="m124.134247 91.042c-1.8955-1.811501-2.852501-4.254875-2.861748-7.357872 0-.529877.032249-1.133377.102501-1.793503.06987-.668999.158249-1.319374.283249-1.922874.859375-4.282753 2.689873-7.683128 5.509247-10.191879 2.815002-2.517624 6.211258-3.78125 10.1875-3.78125 3.256256 0 5.838745.910629 7.729996 2.731506 1.889999 1.830498 2.837509 4.301247 2.837509 7.442375 0 .537994-.04126 1.160622-.111252 1.829498-.083755.678246-.184998 1.328621-.302505 1.969749-.839996 4.217751-2.664993 7.581123-5.485001 10.043503-2.819992 2.480499-6.206253 3.715248-10.154999 3.715248-3.269989 0-5.84375-.891502-7.734497-2.684502m13.810745-5.221252c1.277512-1.384247 2.192505-3.484375 2.75-6.280251.083755-.436501.157501-.891998.203751-1.347122.046249-.446251.065002-.86425.065002-1.245125 0-1.625999-.413742-2.88913-1.244995-3.78125-.826248-.901375-2.001251-1.346748-3.520004-1.346748-2.007492 0-3.642502.705124-4.923752 2.117744-1.292496 1.412628-2.207489 3.549255-2.783752 6.392128-.078751.436501-.143738.873497-.203751 1.300751-.046249.436501-.059998.845253-.051239 1.216751 0 1.616753.413742 2.861877 1.244995 3.744125.826248.882874 1.996246 1.319374 3.535004 1.319374 2.016251 0 3.651245-.696754 4.928741-2.090378" fill="#fff"/><path d="m208.46875.458753-29.097504-.008743 28.931259.018738c.054993 0 .110001-.009994.166245-.009994" fill="#e02f41"/><path d="m179.371246.449994-51.724998-.027496c-.129997 0-.264999.008743-.400002.017502l52.125.009995" fill="#2e4f7d"/><g fill="#fff"><path d="m194.942505 111.611374 1.747498-6.150002h8.835007l-.381256 2.256874s4.514999-2.256874 7.766251-2.256874h10.925003l-1.736252 6.150002h-1.71875l-8.241257 29.005371h1.71875l-1.634995 5.760254h-1.71875l-.714996 2.498993h-8.556259l.71376-2.498993h-16.880005l1.645004-5.760254h1.691254l8.248749-29.005371h-1.708755m9.532501 0-2.248749 7.849998s3.847504-1.476501 7.163742-1.894501c.732513-2.741249 1.690002-5.955498 1.690002-5.955498h-6.604996zm-3.289993 11.529747-2.256256 8.22213s4.263748-2.099625 7.190002-2.276382c.845001-3.177742 1.691254-5.945747 1.691254-5.945747h-6.625zm1.653748 17.475624 1.691238-5.964371h-6.594986l-1.700012 5.964371zm21.368744-35.536125h8.306244l.352509 3.06488c-.055008.780251.408752 1.15287 1.393753 1.15287h1.467499l-1.485001 5.192879h-6.104996c-2.331253.120621-3.530014-.7705-3.641251-2.694374zm-2.433746 11.13913h26.904999l-1.578751 5.574623h-8.566254l-1.46875 5.183121h8.55751l-1.58876 5.565506h-9.53125l-2.15625 3.261749h4.665009l1.077499 6.530746c.128738.650375.705002.966248 1.690002.966248h1.448746l-1.522507 5.378372h-5.128738c-2.657501.130875-4.03125-.761124-4.143753-2.68399l-1.236252-5.964386-4.244995 6.345261c-1.003754 1.792877-2.546265 2.629379-4.626251 2.498993h-7.832504l1.523743-5.379868h2.443756c1.003754 0 1.838745-.445877 2.591248-1.346756l6.643753-9.606369h-8.566254l1.587509-5.565506h9.291245l1.477493-5.183121h-9.299988z"/><path d="m80.134247 66.672874h6.535622l-.747498 3.808998.938004-1.086876c2.118622-2.266624 4.691872-3.391121 7.729996-3.391121 2.75 0 4.733376.799377 5.9785 2.40625 1.225998 1.607498 1.560501 3.828125.980499 6.680252l-3.600624 17.967751h-6.716873l3.251495-16.286125c.335007-1.681625.242256-2.936005-.274368-3.744629-.510254-.808121-1.486382-1.207123-2.893631-1.207123-1.727997 0-3.182121.538124-4.366623 1.607002-1.189499 1.077621-1.974121 2.573746-2.359871 4.477997l-2.996132 15.152878h-6.730873z"/><path d="m155.085007 66.672874h6.541245l-.742493 3.808998.927505-1.086876c2.119995-2.266624 4.702499-3.391121 7.731247-3.391121 2.75 0 4.737503.799377 5.972488 2.40625 1.21875 1.607498 1.571259 3.828125.976257 6.680252l-3.586258 17.967751h-6.726242l3.252502-16.286125c.33374-1.681625.241241-2.936005-.270004-3.744629-.529999-.808121-1.487503-1.207123-2.888748-1.207123-1.728745 0-3.177505.538124-4.376251 1.607002-1.190002 1.077621-1.978745 2.573746-2.350006 4.477997l-3.009995 15.152878h-6.722504l5.271255-26.385254"/><path d="m187.417496 50.321239h18.990005c3.651245 0 6.474991.827499 8.416245 2.452499 1.932495 1.645004 2.899994 4.005005 2.899994 7.080006v.092499c0 .585003-.038742 1.244995-.09375 1.960007-.09375.706242-.214996 1.421242-.371246 2.164993-.836243 4.069374-2.778748 7.339874-5.778748 9.820374-3.011246 2.47113-6.577499 3.716255-10.683746 3.716255h-10.183762l-3.148743 15.450249h-8.817505l8.771255-42.736881m4.746246 19.854504h8.446259c2.201248 0 3.947495-.511749 5.221237-1.523872 1.263763-1.022003 2.100006-2.582504 2.563751-4.700623.073761-.391251.12001-.743752.176254-1.068756.028748-.306248.065002-.613747.065002-.910004 0-1.514999-.537506-2.61124-1.616257-3.29874-1.077499-.69751-2.767487-1.03125-5.110001-1.03125h-7.172501l-2.573746 12.533245"/><path d="m257.188751 98.159126c-2.787506 5.926872-5.443756 9.382378-7.003754 10.989754-1.5625 1.589371-4.654999 5.287125-12.106247 5.007874l.641251-4.524002c6.270004-1.932503 9.661255-10.638626 11.59375-14.493622l-2.303757-28.392006 4.850006-.064995h4.068741l.4375 17.81012 7.626251-17.81012h7.721252l-15.524994 31.476997"/><path d="m235.598755 68.828125-3.067505 2.109375c-3.205002-2.508247-6.131256-4.059998-11.778748-1.440376-7.693756 3.567375-14.122498 30.928627 7.059998 21.916504l1.207504 1.430626 8.33374.213875 5.472504-24.861877-7.227493.631874m-4.738754 13.592247c-1.338745 3.948753-4.328751 6.559128-6.669998 5.816002-2.341248-.724625-3.177505-4.534248-1.821259-8.491753 1.337509-3.957993 4.347504-6.55912 6.669998-5.815872 2.341263.724625 3.186264 4.533623 1.821259 8.491623"/></g></svg>